<?xml version="1.0" encoding="UTF-8" ?>
<!DOCTYPE svg PUBLIC "-//W3C//DTD SVG 1.1//EN" "http://www.w3.org/Graphics/SVG/1.1/DTD/svg11.dtd">
<svg width="500pt" height="500pt" viewBox="0 0 500 500" version="1.1" xmlns="http://www.w3.org/2000/svg">
<g id="#010101ff">
<path fill="#010101" opacity="1.00" d=" M 130.89 8.87 C 132.97 6.63 136.05 5.66 139.06 5.82 C 213.39 5.88 287.72 5.78 362.05 5.87 C 367.87 5.77 372.58 11.32 372.11 17.01 C 372.11 91.02 372.13 165.04 372.10 239.06 C 372.50 244.65 367.79 250.13 362.06 249.94 C 356.61 250.28 351.64 245.38 351.75 239.95 C 351.66 168.70 351.77 97.44 351.69 26.19 C 283.90 26.25 216.10 26.25 148.31 26.19 C 148.24 63.46 148.32 100.73 148.26 138.00 C 148.34 141.69 146.22 145.30 142.96 147.03 C 140.26 148.61 137.02 148.25 134.03 148.30 C 98.10 148.24 62.17 148.32 26.23 148.26 C 26.19 243.21 26.23 338.15 26.22 433.10 C 97.50 433.22 168.78 433.08 240.06 433.17 C 245.69 433.01 250.57 438.44 249.92 444.02 C 249.77 449.55 244.35 453.97 238.92 453.46 C 164.60 453.42 90.27 453.48 15.95 453.43 C 10.42 453.58 5.61 448.50 5.85 443.01 C 5.80 342.99 5.86 242.97 5.82 142.96 C 5.88 139.48 5.34 135.60 7.46 132.58 C 9.03 130.48 11.04 128.76 12.88 126.89 C 52.22 87.55 91.57 48.22 130.89 8.87 M 40.60 127.91 C 69.69 127.85 98.78 127.88 127.88 127.89 C 127.90 98.79 127.87 69.68 127.90 40.58 C 98.84 69.73 69.70 98.80 40.60 127.91 Z" />
<path fill="#010101" opacity="1.00" d=" M 188.94 158.98 C 188.62 153.46 193.29 148.19 198.91 148.32 C 212.63 148.26 226.35 148.25 240.07 148.32 C 245.24 148.23 249.95 152.81 249.93 158.00 C 250.44 163.50 245.57 168.63 240.10 168.58 C 229.85 168.66 219.60 168.60 209.35 168.60 C 209.27 206.07 209.35 243.55 209.31 281.03 C 209.19 288.13 205.71 294.86 200.54 299.63 C 192.63 307.07 181.67 310.52 170.98 310.99 C 159.12 311.45 146.65 308.34 137.54 300.43 C 131.16 294.95 127.06 286.48 128.07 277.98 C 128.94 269.22 134.83 261.69 142.15 257.17 C 156.00 248.57 173.94 248.05 188.95 253.84 C 188.86 222.22 188.90 190.60 188.94 158.98 M 164.34 270.59 C 158.74 271.35 152.63 273.21 149.13 277.96 C 147.25 280.34 148.84 283.46 150.92 285.09 C 156.84 290.09 165.11 291.17 172.60 290.48 C 178.32 289.74 184.61 287.89 188.15 282.99 C 189.96 280.52 188.27 277.40 186.14 275.79 C 180.15 270.85 171.84 269.84 164.34 270.59 Z" />
<path fill="#010101" opacity="1.00" d=" M 375.37 270.55 C 399.43 269.02 423.92 275.55 443.96 288.95 C 461.77 300.75 476.11 317.72 484.70 337.29 C 499.43 370.15 496.73 410.10 477.64 440.66 C 459.36 470.82 426.15 491.37 390.91 493.79 C 355.30 496.90 318.89 481.33 296.24 453.75 C 279.11 433.33 269.71 406.62 270.38 379.97 C 270.80 349.25 284.79 319.12 307.79 298.79 C 326.30 282.15 350.51 271.99 375.37 270.55 M 368.43 291.73 C 336.92 296.25 308.86 318.63 297.24 348.23 C 288.28 370.38 288.51 396.07 297.98 418.02 C 306.43 437.99 322.25 454.70 341.68 464.31 C 357.76 472.33 376.24 475.36 394.05 473.03 C 410.62 470.92 426.53 464.09 439.52 453.61 C 455.92 440.51 467.58 421.61 471.84 401.06 C 475.57 383.37 473.93 364.57 467.08 347.82 C 458.77 327.27 442.69 309.99 422.81 300.19 C 406.13 291.85 386.85 288.89 368.43 291.73 Z" />
<path fill="#010101" opacity="1.00" d=" M 375.02 314.02 C 378.65 310.14 385.48 310.00 389.21 313.81 C 402.88 327.49 416.60 341.14 430.23 354.87 C 434.31 358.77 433.95 366.00 429.60 369.56 C 425.82 373.03 419.42 372.87 415.86 369.15 C 408.02 361.38 400.21 353.58 392.46 345.72 C 392.36 378.14 392.46 410.56 392.41 442.98 C 392.75 448.97 387.01 454.27 381.06 453.39 C 376.05 452.90 371.86 448.19 372.13 443.13 C 372.11 410.67 372.09 378.20 372.14 345.74 C 364.40 353.41 356.73 361.16 349.00 368.84 C 345.67 372.46 339.76 373.17 335.76 370.26 C 330.76 367.01 329.86 359.18 334.15 354.96 C 347.72 341.26 361.41 327.69 375.02 314.02 Z" />
</g>
</svg>
