<?xml version="1.0" encoding="UTF-8" ?>
<!DOCTYPE svg PUBLIC "-//W3C//DTD SVG 1.1//EN" "http://www.w3.org/Graphics/SVG/1.1/DTD/svg11.dtd">
<svg width="512pt" height="512pt" viewBox="0 0 512 512" version="1.1" xmlns="http://www.w3.org/2000/svg">
<g id="#000000ff">
<path fill="#000000" opacity="1.00" d=" M 168.95 56.80 C 176.36 54.37 184.28 54.45 191.99 54.49 C 234.32 54.50 276.64 54.50 318.97 54.50 C 326.99 54.46 335.25 54.25 342.94 56.88 C 351.11 59.50 358.31 64.71 363.79 71.25 C 370.65 79.26 373.51 89.88 373.85 100.25 C 400.93 100.28 428.00 100.19 455.08 100.29 C 469.91 100.28 484.57 106.45 494.84 117.17 C 505.32 127.08 511.45 141.15 512.00 155.52 L 512.00 401.52 C 511.46 418.58 502.75 434.90 489.44 445.45 C 479.55 453.51 466.75 457.56 454.05 457.48 C 325.36 457.53 196.66 457.49 67.97 457.50 C 61.61 457.45 55.21 457.78 48.91 456.77 C 32.57 454.21 17.76 444.17 8.76 430.38 C 3.22 421.83 0.35 411.72 0.00 401.58 L 0.00 156.47 C 0.45 139.63 8.88 123.47 21.87 112.86 C 31.61 104.68 44.28 100.36 56.95 100.29 C 83.85 100.19 110.75 100.28 137.66 100.25 C 138.04 96.00 138.23 91.69 139.43 87.57 C 143.26 73.24 154.74 61.17 168.95 56.80 M 178.39 80.49 C 171.47 82.03 165.99 88.02 164.91 94.99 C 163.93 101.62 164.98 108.36 164.29 115.02 C 163.24 121.21 157.31 126.26 150.97 126.04 C 119.97 126.13 88.97 125.99 57.97 126.10 C 49.10 126.04 40.25 129.66 34.26 136.25 C 28.48 142.31 25.63 150.73 25.80 159.04 C 25.78 239.01 25.77 318.99 25.80 398.96 C 25.58 408.68 29.82 418.43 37.47 424.51 C 43.42 429.52 51.26 431.79 58.97 431.67 C 190.32 431.70 321.68 431.69 453.03 431.67 C 463.35 432.01 473.72 427.34 479.86 418.96 C 485.78 411.35 486.82 401.27 486.69 391.95 C 486.68 314.63 486.69 237.32 486.69 160.00 C 486.76 153.41 485.51 146.65 481.89 141.05 C 476.29 131.87 465.80 126.07 455.05 126.12 C 424.03 125.97 392.99 126.12 361.96 126.05 C 355.49 126.44 349.25 121.42 348.21 115.05 C 347.58 108.67 348.45 102.22 347.71 95.84 C 347.02 90.01 343.38 84.54 338.06 81.97 C 333.44 79.52 328.06 79.80 322.99 79.81 C 278.98 79.82 234.97 79.81 190.95 79.81 C 186.76 79.86 182.50 79.54 178.39 80.49 Z" />
<path fill="#000000" opacity="1.00" d=" M 249.30 159.48 C 280.26 157.55 311.74 168.44 334.97 188.98 C 355.22 206.65 369.13 231.39 373.76 257.86 C 377.51 279.16 375.61 301.52 367.77 321.71 C 355.69 353.89 328.82 380.06 296.41 391.45 C 263.66 403.39 225.68 400.05 195.66 382.27 C 174.54 369.97 157.40 351.00 147.26 328.76 C 137.30 307.13 134.08 282.49 138.00 259.01 C 143.29 225.66 163.81 195.19 192.53 177.48 C 209.50 166.77 229.27 160.53 249.30 159.48 M 243.52 186.80 C 216.58 190.19 191.44 206.04 177.23 229.25 C 165.47 247.69 160.51 270.31 163.47 291.99 C 166.14 312.93 176.29 332.84 191.71 347.26 C 207.72 362.05 228.84 371.40 250.67 372.56 C 270.04 373.76 289.66 368.52 306.04 358.15 C 325.06 346.41 339.48 327.51 345.78 306.06 C 350.51 289.82 350.52 272.30 346.45 255.92 C 340.80 233.29 326.17 213.03 306.32 200.74 C 287.87 188.93 265.24 183.82 243.52 186.80 Z" />
<path fill="#000000" opacity="1.00" d=" M 424.25 159.26 C 437.12 156.11 451.13 165.79 452.76 178.91 C 454.94 190.99 446.13 203.57 434.10 205.79 C 425.79 207.58 416.69 204.50 411.22 197.99 C 406.29 192.33 404.34 184.25 406.16 176.96 C 408.12 168.24 415.50 161.06 424.25 159.26 Z" />
</g>
</svg>
