<?xml version="1.0" encoding="UTF-8" ?>
<!DOCTYPE svg PUBLIC "-//W3C//DTD SVG 1.1//EN" "http://www.w3.org/Graphics/SVG/1.1/DTD/svg11.dtd">
<svg width="589pt" height="589pt" viewBox="0 0 589 589" version="1.1" xmlns="http://www.w3.org/2000/svg">
<g id="#fff">
</g>
<g id="#fff">
<path fill="#fff" opacity="1.00" d=" M 30.95 6.94 C 43.04 0.63 57.35 -1.02 70.59 2.08 C 80.09 4.38 88.76 9.41 95.91 16.01 C 162.22 82.18 228.33 148.57 294.71 214.67 C 305.85 202.86 317.65 191.65 329.02 180.06 C 382.86 126.25 436.68 72.42 490.50 18.59 C 498.50 10.31 508.77 4.12 520.09 1.71 C 532.06 -0.39 544.88 0.45 555.86 6.00 C 567.51 11.78 577.24 21.50 582.92 33.21 C 587.76 43.01 589.16 54.29 587.76 65.07 C 586.07 77.78 579.40 89.45 570.23 98.29 C 562.17 106.21 554.30 114.33 546.22 122.23 C 539.69 128.71 533.30 135.31 526.72 141.73 C 525.29 143.31 523.71 144.73 522.24 146.27 C 476.53 191.86 430.92 237.54 385.26 283.19 C 381.55 286.72 378.18 290.64 374.21 293.90 C 381.94 302.42 390.42 310.25 398.46 318.49 C 452.79 372.84 507.14 427.17 561.47 481.51 C 568.77 488.93 576.86 495.86 581.77 505.22 C 589.38 519.31 590.18 536.61 584.72 551.59 C 584.95 551.85 585.42 552.39 585.65 552.65 C 584.86 553.00 583.68 553.01 583.46 554.04 C 573.67 576.44 548.35 591.65 523.90 587.86 C 511.35 585.74 499.49 579.40 490.80 570.10 C 480.21 559.42 469.35 549.00 459.02 538.10 C 450.08 529.84 441.80 520.85 433.05 512.38 C 387.10 466.42 341.17 420.47 295.23 374.52 C 294.86 374.51 294.12 374.48 293.75 374.46 C 282.11 386.61 269.94 398.26 258.17 410.29 C 236.81 431.56 215.52 452.92 194.20 474.23 C 191.43 476.83 188.87 479.64 186.15 482.30 C 180.77 487.57 175.51 492.96 170.15 498.26 C 167.41 500.86 164.85 503.63 162.15 506.28 C 156.64 511.71 151.24 517.26 145.70 522.66 C 137.91 530.55 130.03 538.36 122.19 546.21 C 113.32 555.07 104.52 564.00 95.56 572.78 C 83.89 583.38 67.88 590.05 51.95 588.11 C 42.62 587.56 34.20 583.14 26.12 578.88 C 26.96 578.36 27.80 577.86 28.65 577.36 C 27.30 576.71 25.63 575.85 24.37 577.17 C 18.10 572.68 12.80 566.95 8.80 560.36 C 9.02 560.13 9.47 559.67 9.69 559.44 C 7.30 559.82 7.13 557.10 6.19 555.53 C -1.60 539.61 -1.04 519.88 7.72 504.46 C 12.26 495.83 19.75 489.42 26.48 482.57 C 89.28 419.75 152.12 356.97 214.89 294.13 C 170.47 250.16 126.65 205.56 82.09 161.76 C 81.14 160.61 80.25 159.11 78.59 158.99 L 79.37 158.32 C 74.76 155.08 71.51 150.28 67.05 146.83 C 67.79 146.37 68.52 145.90 69.24 145.43 C 68.44 145.48 66.84 145.57 66.03 145.62 C 63.90 142.93 60.92 140.97 59.09 138.04 C 55.89 136.25 54.19 132.77 51.04 130.85 C 51.77 130.39 52.50 129.92 53.23 129.44 C 52.43 129.47 50.82 129.54 50.02 129.57 C 48.51 127.89 46.94 126.27 45.17 124.87 C 45.55 124.58 46.32 124.01 46.70 123.73 C 45.87 123.50 45.06 123.24 44.25 122.94 C 44.34 122.51 44.52 121.65 44.61 121.22 C 44.01 121.34 42.81 121.58 42.22 121.69 C 40.38 120.01 38.83 118.06 36.99 116.39 C 36.68 116.53 36.08 116.80 35.77 116.94 L 36.57 114.61 L 35.64 114.84 C 30.09 109.90 25.09 104.35 19.73 99.19 C 15.96 95.61 12.61 91.62 9.62 87.37 C 0.36 73.27 -1.86 54.91 3.63 38.99 C 8.36 25.37 18.63 14.18 30.95 6.94 Z" />
</g>
</svg>
